<svg id="Capa_1" enable-background="new 0 0 512 512" height="512" viewBox="0 0 512 512" width="512" xmlns="http://www.w3.org/2000/svg" xmlns:xlink="http://www.w3.org/1999/xlink"><linearGradient id="SVGID_1_" gradientUnits="userSpaceOnUse" x1="256" x2="256" y1="512" y2="0"><stop offset="0" stop-color="#c3ffe8"/><stop offset=".9973" stop-color="#f0fff4"/></linearGradient><linearGradient id="SVGID_2_" gradientUnits="userSpaceOnUse" x1="256" x2="256" y1="354" y2="158"><stop offset="0" stop-color="#83f3a9"/><stop offset="1" stop-color="#00b59c"/></linearGradient><g><g><circle cx="256" cy="256" fill="url(#SVGID_1_)" r="256"/></g><g><g><g><g><path d="m319.07 211.455h-126.14c-3.539 17.427-17.262 31.19-34.636 34.74v19.61c17.374 3.55 31.097 17.314 34.636 34.74h126.14c3.539-17.427 17.262-31.19 34.636-34.74v-19.61c-17.374-3.55-31.097-17.314-34.636-34.74zm-63.07 71.272c-14.694 0-26.647-11.989-26.647-26.727s11.953-26.727 26.647-26.727 26.647 11.989 26.647 26.727-11.953 26.727-26.647 26.727zm142.118-124.727h-284.236c-4.91 0-8.882 3.985-8.882 8.909v178.182c0 4.924 3.973 8.909 8.882 8.909h284.235c4.91 0 8.882-3.985 8.882-8.909v-178.182c.001-4.924-3.972-8.909-8.881-8.909zm-26.647 115.818c0 4.924-3.973 8.909-8.882 8.909-14.694 0-26.647 11.989-26.647 26.727 0 4.924-3.973 8.909-8.882 8.909h-142.119c-4.91 0-8.882-3.985-8.882-8.909 0-14.738-11.953-26.727-26.647-26.727-4.91 0-8.882-3.985-8.882-8.909v-35.636c0-4.924 3.973-8.909 8.882-8.909 14.694 0 26.647-11.989 26.647-26.727 0-4.924 3.973-8.909 8.882-8.909h142.118c4.91 0 8.882 3.985 8.882 8.909 0 14.738 11.953 26.727 26.647 26.727 4.91 0 8.882 3.985 8.882 8.909v35.636z" fill="url(#SVGID_2_)"/></g></g></g></g></g></svg>