<svg id="Capa_1" enable-background="new 0 0 512 512" height="512" viewBox="0 0 512 512" width="512" xmlns="http://www.w3.org/2000/svg" xmlns:xlink="http://www.w3.org/1999/xlink"><linearGradient id="SVGID_1_" gradientUnits="userSpaceOnUse" x1="256" x2="256" y1="512" y2="0"><stop offset="0" stop-color="#ffedad"/><stop offset="1" stop-color="#ffffe5"/></linearGradient><linearGradient id="SVGID_2_" gradientUnits="userSpaceOnUse" x1="256" x2="256" y1="371.5" y2="140.5"><stop offset="0" stop-color="#feba00"/><stop offset="1" stop-color="#fd5900"/></linearGradient><g><g><circle cx="256" cy="256" fill="url(#SVGID_1_)" r="256"/></g><g><g><g><g><path d="m405.119 214.995c-1.683-2.16-4.268-3.419-7-3.419h-248.707c-4.077 0-7.625 2.776-8.614 6.733l-35.529 142.154c-.668 2.655-.069 5.466 1.613 7.618 1.683 2.16 4.268 3.418 7 3.418h248.707c4.077 0 7.625-2.776 8.614-6.733l35.53-142.154c.667-2.654.069-5.465-1.614-7.617zm-255.707-21.187h222.06v-26.654c0-4.911-3.973-8.885-8.882-8.885h-173.97l-15.163-15.166c-1.665-1.666-3.921-2.603-6.28-2.603h-53.294c-4.91 0-8.882 3.974-8.882 8.885v138.948l18.58-74.335c2.896-11.861 13.531-20.19 25.831-20.19z" fill="url(#SVGID_2_)"/></g></g></g></g></g></svg>