<svg id="Capa_1" enable-background="new 0 0 512 512" height="512" viewBox="0 0 512 512" width="512" xmlns="http://www.w3.org/2000/svg" xmlns:xlink="http://www.w3.org/1999/xlink"><linearGradient id="SVGID_1_" gradientUnits="userSpaceOnUse" x1="256" x2="256" y1="512" y2="0"><stop offset="0" stop-color="#ffc8d1"/><stop offset="1" stop-color="#fff6f7"/></linearGradient><linearGradient id="SVGID_2_" gradientUnits="userSpaceOnUse" x1="256" x2="256" y1="407" y2="105"><stop offset="0" stop-color="#ffa68d"/><stop offset="1" stop-color="#fd3a84"/></linearGradient><g><g><circle cx="256" cy="256" fill="url(#SVGID_1_)" r="256"/></g><g><g><path d="m368.704 155.483-106.424 106.581c-1.7 1.703-3.973 2.606-6.28 2.606-1.145 0-2.307-.217-3.4-.678-3.313-1.373-5.482-4.622-5.482-8.218v-150.774c-79.115 4.644-142.118 70.39-142.118 150.775 0 83.387 67.745 151.225 151 151.225s151-67.838 151-151.225c0-38.497-14.56-73.568-38.296-100.292zm-103.822-50.483v129.3l91.261-91.397c-24.604-21.919-56.325-35.853-91.261-37.903z" fill="url(#SVGID_2_)"/></g></g></g></svg>